<svg width="900" height="260" viewBox="0 0 900 260" fill="none" xmlns="http://www.w3.org/2000/svg">
  <rect width="900" height="260" rx="28" fill="#F8FBFD"/>
  <g fill="#A8946D">
    <path d="M108 74H264V93H197V187H175V93H108V74Z"/>
    <path d="M285 74H425V92H307V122H406V139H307V169H427V187H285V74Z"/>
    <path d="M455 74H477V187H455V74Z"/>
    <path d="M518 131C518 95 546 70 589 70C632 70 660 95 660 131C660 166 632 191 589 191C546 191 518 166 518 131ZM638 131C638 105 619 89 589 89C559 89 540 105 540 131C540 156 559 172 589 172C619 172 638 156 638 131Z"/>
    <path d="M684 74H706V169H814V187H684V74Z"/>
    <path d="M548 214C548 193 564 178 590 178C603 178 614 182 622 190L614 198C608 192 600 189 590 189C570 189 557 200 557 214C557 229 570 240 590 240C600 240 608 236 614 230L622 238C614 246 603 250 590 250C564 250 548 235 548 214Z"/>
    <path d="M641 180H652L694 248H682L671 230H622L611 248H599L641 180ZM666 221L647 190L627 221H666Z"/>
    <path d="M716 180H725V248H716V180Z"/>
    <path d="M755 180H782C804 180 819 193 819 214C819 235 804 248 782 248H755V180ZM781 239C798 239 810 229 810 214C810 199 798 189 781 189H764V239H781Z"/>
  </g>
  <g fill="#B9AD97">
    <path d="M266 204C266 194 273 187 285 187C297 187 304 194 304 204C304 214 297 221 285 221C273 221 266 214 266 204Z"/>
    <path d="M322 180H331V207H364V180H373V248H364V216H331V248H322V180Z"/>
    <path d="M396 180H444V189H405V209H440V217H405V239H446V248H396V180Z"/>
    <path d="M467 180H476V239H512V248H467V180Z"/>
  </g>
</svg>
